<svg width="58" height="58" xmlns="http://www.w3.org/2000/svg"><defs><filter x="-41.2%" y="-26.2%" width="182.5%" height="182.5%" filterUnits="objectBoundingBox" id="a"><feOffset dy="6" in="SourceAlpha" result="shadowOffsetOuter1"/><feGaussianBlur stdDeviation="4.5" in="shadowOffsetOuter1" result="shadowBlurOuter1"/><feColorMatrix values="0 0 0 0 0 0 0 0 0 0 0 0 0 0 0 0 0 0 0.298629982 0" in="shadowBlurOuter1" result="shadowMatrixOuter1"/><feMerge><feMergeNode in="shadowMatrixOuter1"/><feMergeNode in="SourceGraphic"/></feMerge></filter></defs><g filter="url(#a)" transform="translate(9 3)" fill="none" fill-rule="evenodd"><ellipse fill="#FFF" cx="19.5" cy="19.5" rx="13.5" ry="11.5"/><path d="M34.142 5.858A19.87 19.87 0 0 0 20 0 19.87 19.87 0 0 0 5.858 5.858 19.87 19.87 0 0 0 0 20a19.87 19.87 0 0 0 5.858 14.142A19.87 19.87 0 0 0 20 40a19.87 19.87 0 0 0 14.142-5.858A19.87 19.87 0 0 0 40 20a19.87 19.87 0 0 0-5.858-14.142zm-4.587 9.382L18.378 26.417a1.168 1.168 0 0 1-1.657 0l-6.276-6.276a1.172 1.172 0 1 1 1.657-1.657l5.448 5.447 10.348-10.348a1.172 1.172 0 1 1 1.657 1.657z" fill="#00C0B1" fill-rule="nonzero"/></g></svg>