<?xml version="1.0" encoding="UTF-8"?>
<svg width="24px" height="24px" viewBox="0 0 24 24" version="1.1" xmlns="http://www.w3.org/2000/svg" xmlns:xlink="http://www.w3.org/1999/xlink">
    <!-- Generator: sketchtool 51.2 (57519) - http://www.bohemiancoding.com/sketch -->
    <title>86AB8766-B554-4E1D-8E99-AC5D1525342F</title>
    <desc>Created with sketchtool.</desc>
    <defs>
        <linearGradient x1="14.6482176%" y1="85.3611632%" x2="85.3517824%" y2="14.6482176%" id="linearGradient-1">
            <stop stop-color="#FFC107" offset="0%"></stop>
            <stop stop-color="#F44336" offset="50.7%"></stop>
            <stop stop-color="#9C27B0" offset="99%"></stop>
        </linearGradient>
    </defs>
    <g id="Main" stroke="none" stroke-width="1" fill="none" fill-rule="evenodd">
        <g id="Landing_Desktop" transform="translate(-1067.000000, -105.000000)" fill="url(#linearGradient-1)" fill-rule="nonzero">
            <g id="ic_instagram" transform="translate(1067.000000, 105.000000)">
                <path d="M15.5346667,6.368 L8.4008,6.368 C7.26213333,6.368 6.33573333,7.2944 6.33573333,8.43306667 L6.33573333,15.5669333 C6.33573333,16.7056 7.26213333,17.6322667 8.4008,17.6322667 L15.5346667,17.6322667 C16.6733333,17.6322667 17.6,16.7058667 17.6,15.5669333 L17.6,8.43306667 C17.6,7.2944 16.6736,6.368 15.5346667,6.368 Z M11.9677333,15.7082667 C9.9232,15.7082667 8.25973333,14.0448 8.25973333,12 C8.25973333,9.95546667 9.9232,8.292 11.9677333,8.292 C14.0125333,8.292 15.676,9.95546667 15.676,12 C15.676,14.0445333 14.0122667,15.7082667 11.9677333,15.7082667 Z M15.7952,9.05866667 C15.3112,9.05866667 14.9176,8.66506667 14.9176,8.18133333 C14.9176,7.6976 15.3112,7.304 15.7952,7.304 C16.2789333,7.304 16.6725333,7.6976 16.6725333,8.18133333 C16.6725333,8.66506667 16.2789333,9.05866667 15.7952,9.05866667 Z" id="Shape"></path>
                <path d="M11.9677333,9.85893333 C10.7874667,9.85893333 9.8264,10.8194667 9.8264,11.9997333 C9.8264,13.1805333 10.7874667,14.1413333 11.9677333,14.1413333 C13.1485333,14.1413333 14.1088,13.1805333 14.1088,11.9997333 C14.1088,10.8197333 13.1482667,9.85893333 11.9677333,9.85893333 Z" id="Shape"></path>
                <path d="M11.9677333,0 C5.3584,0 0,5.3584 0,11.9677333 C0,18.5770667 5.3584,23.9354667 11.9677333,23.9354667 C18.5770667,23.9354667 23.9354667,18.5770667 23.9354667,11.9677333 C23.9354667,5.3584 18.5770667,0 11.9677333,0 Z M19.1666667,15.5669333 C19.1666667,17.5698667 17.5376,19.1989333 15.5346667,19.1989333 L8.4008,19.1989333 C6.39813333,19.1989333 4.7688,17.5698667 4.7688,15.5669333 L4.7688,8.43306667 C4.7688,6.4304 6.39813333,4.80106667 8.4008,4.80106667 L15.5346667,4.80106667 C17.5376,4.80106667 19.1666667,6.4304 19.1666667,8.43306667 L19.1666667,15.5669333 Z" id="Shape"></path>
            </g>
        </g>
    </g>
</svg>