<?xml version="1.0" encoding="UTF-8"?>
<svg width="24px" height="25px" viewBox="0 0 24 25" version="1.1" xmlns="http://www.w3.org/2000/svg" xmlns:xlink="http://www.w3.org/1999/xlink">
    <!-- Generator: sketchtool 51.2 (57519) - http://www.bohemiancoding.com/sketch -->
    <title>F0686F7B-3ADC-4ED7-9135-4FB8017C2C8E</title>
    <desc>Created with sketchtool.</desc>
    <defs></defs>
    <g id="Main" stroke="none" stroke-width="1" fill="none" fill-rule="evenodd">
        <g id="Landing_Desktop" transform="translate(-1097.000000, -105.000000)" fill-rule="nonzero">
            <g id="ic_linked-in" transform="translate(1097.000000, 105.000000)">
                <circle id="Oval" fill="#007AB9" cx="11.9146195" cy="12.1267965" r="11.9146195"></circle>
                <path d="M19.0334867,13.0855221 L19.0334867,17.9976637 L16.1855575,17.9976637 L16.1855575,13.4147257 C16.1855575,12.264 15.7743717,11.4781593 14.7432212,11.4781593 C13.9563186,11.4781593 13.4888496,12.0072212 13.2824071,12.5195044 C13.2074336,12.7025841 13.1881062,12.9568142 13.1881062,13.2135929 L13.1881062,17.9974513 L10.3399646,17.9974513 C10.3399646,17.9974513 10.3781947,10.235469 10.3399646,9.432 L13.1883186,9.432 L13.1883186,10.6458053 C13.1825841,10.6553628 13.1745133,10.664708 13.1694159,10.6738407 L13.1883186,10.6738407 L13.1883186,10.6458053 C13.5667965,10.0634336 14.2417699,9.23086726 15.7550442,9.23086726 C17.6287434,9.23086726 19.0334867,10.4550796 19.0334867,13.0855221 Z M7.36056637,5.30315044 C6.38633628,5.30315044 5.74895575,5.94265487 5.74895575,6.78286726 C5.74895575,7.60523894 6.36785841,8.26322124 7.32318584,8.26322124 L7.34166372,8.26322124 C8.33500885,8.26322124 8.95263717,7.60523894 8.95263717,6.78286726 C8.93373451,5.94265487 8.33500885,5.30315044 7.36056637,5.30315044 Z M5.91823009,17.9976637 L8.76530973,17.9976637 L8.76530973,9.432 L5.91823009,9.432 L5.91823009,17.9976637 Z" id="Shape" fill="#F1F2F2"></path>
            </g>
        </g>
    </g>
</svg>