<svg width="35" height="35" xmlns="http://www.w3.org/2000/svg" xmlns:xlink="http://www.w3.org/1999/xlink"><defs><linearGradient x1="25.292%" y1="8.432%" x2="80.302%" y2="102.939%" id="a"><stop stop-color="#565656" offset="0%"/><stop offset="100%"/></linearGradient><linearGradient x1="23.372%" y1="11.45%" x2="54.064%" y2="100%" id="d"><stop stop-color="#FFFC30" offset="0%"/><stop stop-color="#FF7A00" offset="100%"/></linearGradient><path d="M3.186 11.526A1.847 1.847 0 0 1 .508 8.983L8.493.575a1.847 1.847 0 0 1 2.679 0l7.985 8.413a1.846 1.846 0 1 1-2.68 2.542L9.832 4.528l-6.646 6.998zm6.646 5.599a2.51 2.51 0 1 1 0-5.02 2.51 2.51 0 0 1 0 5.02z" id="c"/><filter x="-40.7%" y="-23.4%" width="181.4%" height="193.4%" filterUnits="objectBoundingBox" id="b"><feOffset dy="4" in="SourceAlpha" result="shadowOffsetOuter1"/><feGaussianBlur stdDeviation="2" in="shadowOffsetOuter1" result="shadowBlurOuter1"/><feColorMatrix values="0 0 0 0 0 0 0 0 0 0 0 0 0 0 0 0 0 0 0.5 0" in="shadowBlurOuter1"/></filter></defs><g fill="none" fill-rule="evenodd"><rect fill="#D6D16F" width="35" height="35" rx="17.5"/><circle fill="url(#a)" cx="17.5" cy="17.5" r="17.5"/><g transform="translate(7.538 8.885)" fill-rule="nonzero"><use fill="#000" filter="url(#b)" xlink:href="#c"/><use fill="url(#d)" fill-rule="evenodd" xlink:href="#c"/></g></g></svg>