<svg width="121" height="97" xmlns="http://www.w3.org/2000/svg"><path d="M3.182 6.266a2.992 2.992 0 0 1-2.93-3.085A3.05 3.05 0 0 1 3.361.227l20.84.453a10.97 10.97 0 0 1 10.744 11.279L34.578 25.8a4.987 4.987 0 0 0 5.126 5.126l13.446-.356A10.97 10.97 0 0 1 64.428 41.85l-.356 13.446a4.987 4.987 0 0 0 5.126 5.126l13.446-.356A10.97 10.97 0 0 1 93.92 71.342l-.367 13.854a4.987 4.987 0 0 0 4.877 5.126l19.427.448a2.992 2.992 0 0 1 2.926 3.09 3.05 3.05 0 0 1-3.112 2.95l-19.428-.449a10.97 10.97 0 0 1-10.728-11.278l.366-13.853a4.987 4.987 0 0 0-5.126-5.126l-13.446.356a10.97 10.97 0 0 1-11.277-11.277l.356-13.447a4.987 4.987 0 0 0-5.126-5.126l-13.446.356A10.97 10.97 0 0 1 28.54 25.69l.366-13.843a4.987 4.987 0 0 0-4.884-5.127l-20.84-.453z" fill="#00C0B1" fill-rule="nonzero"/></svg>