<svg width="809" height="176" xmlns="http://www.w3.org/2000/svg"><g fill="#000" fill-rule="evenodd"><path d="M266.766 44.556a11.737 11.737 0 0 1 16.713-.12c4.648 4.628 4.701 12.184.119 16.878l-59.682 61.13a11.737 11.737 0 0 1-16.83.003L147.406 61.35c-4.584-4.692-4.533-12.248.114-16.877a11.737 11.737 0 0 1 16.713.115l51.266 52.48 51.268-52.512zM616.609 124.297a11.774 11.774 0 0 0 16.707.44c4.735-4.517 4.931-12.037.439-16.797l-59.682-63.237c-4.66-4.937-12.483-4.938-17.144-.002l-59.682 63.202c-4.494 4.76-4.3 12.28.434 16.798a11.774 11.774 0 0 0 16.708-.436l51.109-54.124 51.11 54.156zM46.445 136.726v27.456c0 6.527-5.331 11.818-11.909 11.818-6.577 0-11.909-5.291-11.909-11.818v-38.093c0-6.526 5.332-11.818 11.91-11.818.056 0 .112 0 .168.002l.165-.002h47.898c14.141 0 25.605-11.375 25.605-25.408 0-14.033-11.464-25.409-25.605-25.409H11.314C5.065 63.454 0 58.428 0 52.227 0 46.027 5.065 41 11.314 41h71.454C109.406 41 131 62.429 131 88.863s-21.594 47.863-48.232 47.863H46.445zM433.393 52.819c0-6.528 5.285-11.819 11.804-11.819C451.715 41 457 46.291 457 52.819V163.18c0 6.528-5.285 11.819-11.803 11.819H325.803c-6.518 0-11.803-5.291-11.803-11.819V52.82C314 46.29 319.285 41 325.803 41c6.52 0 11.804 5.291 11.804 11.819v98.544h95.786V52.819zM666 52.819C666 46.29 671.285 41 677.803 41c6.52 0 11.804 5.291 11.804 11.819V163.18c0 6.528-5.285 11.819-11.804 11.819-6.518 0-11.803-5.291-11.803-11.819V52.82zm119.393 27.096l-98.374 91.541c-4.775 4.444-12.244 4.17-16.681-.611-4.438-4.782-4.165-12.26.61-16.703l116.92-108.799c.244-.227.494-.441.751-.643a11.763 11.763 0 0 1 8.578-3.7C803.715 41 809 46.291 809 52.819V163.18c0 6.528-5.285 11.819-11.803 11.819-6.52 0-11.804-5.291-11.804-11.819V79.915z" fill-rule="nonzero"/><circle cx="216" cy="160" r="16"/><circle cx="562.5" cy="158.5" r="16.5"/><circle cx="737" cy="16" r="16"/><circle cx="386" cy="100" r="16"/></g></svg>